<?xml version="1.0" encoding="utf-8"?>
<!-- Generator: Adobe Illustrator 24.3.0, SVG Export Plug-In . SVG Version: 6.00 Build 0)  -->
<svg version="1.1" id="Layer_1" xmlns="http://www.w3.org/2000/svg" xmlns:xlink="http://www.w3.org/1999/xlink" x="0px" y="0px"
	 viewBox="0 0 30 30" style="enable-background:new 0 0 30 30;" xml:space="preserve">
<style type="text/css">
	.st0{fill:#70CDDD;}
</style>
<path class="st0" d="M8.63,15.25c0-1.13-0.01-2.26,0-3.39c0.02-2.3,1.51-4.12,3.73-4.58c0.13-0.03,0.26-0.05,0.39-0.05
	c1.6-0.02,3.21-0.19,4.79,0.09c2.06,0.37,3.59,2.23,3.61,4.33c0.03,2.4,0.03,4.8,0,7.21c-0.03,2.42-2.02,4.39-4.44,4.44
	c-1.22,0.03-2.44,0.03-3.66,0c-2.33-0.06-4.28-1.93-4.4-4.26c-0.06-1.26-0.01-2.52-0.01-3.78C8.64,15.25,8.63,15.25,8.63,15.25z
	 M20.15,15.23C20.15,15.23,20.15,15.23,20.15,15.23c0-1.18,0.02-2.36-0.01-3.54c-0.05-1.97-1.63-3.48-3.6-3.49
	c-1.06,0-2.12,0-3.18,0c-2.16,0-3.72,1.56-3.73,3.73c0,2.2,0,4.4,0,6.61c0,2.17,1.52,3.71,3.69,3.74c1.05,0.01,2.1,0.01,3.15,0
	c2.16-0.03,3.66-1.56,3.67-3.72C20.16,17.45,20.15,16.34,20.15,15.23z"/>
<path class="st0" d="M14.39,1.89c-0.61,0.53-1.14,0.99-1.67,1.46C12.66,3.4,12.6,3.45,12.54,3.5c-0.26,0.2-0.56,0.19-0.75-0.04
	c-0.18-0.22-0.16-0.5,0.08-0.72c0.34-0.31,0.69-0.61,1.04-0.91c0.53-0.46,1.05-0.92,1.58-1.39c0.27-0.24,0.54-0.25,0.8-0.02
	c0.85,0.74,1.7,1.49,2.55,2.24c0.09,0.08,0.19,0.16,0.23,0.27c0.11,0.23,0.06,0.46-0.15,0.61c-0.22,0.16-0.45,0.14-0.66-0.04
	c-0.51-0.44-1.02-0.89-1.54-1.34c-0.09-0.08-0.17-0.15-0.32-0.27c0,0.47,0,0.87,0,1.26c0,0.57,0,1.14,0,1.71
	c0,0.44-0.18,0.67-0.51,0.67c-0.32-0.01-0.5-0.24-0.5-0.68c0-0.85,0-1.7,0-2.55C14.39,2.2,14.39,2.09,14.39,1.89z"/>
<path class="st0" d="M14.39,28.49c0-0.11,0-0.21,0-0.32c0-0.85,0-1.7,0-2.55c0-0.15,0.03-0.33,0.11-0.46
	c0.12-0.2,0.33-0.25,0.55-0.18c0.24,0.08,0.35,0.26,0.35,0.51c0,0.9,0,1.8,0,2.7c0,0.11,0,0.21,0,0.39c0.3-0.26,0.55-0.47,0.79-0.69
	c0.34-0.3,0.68-0.6,1.02-0.89c0.28-0.24,0.57-0.23,0.77,0c0.2,0.22,0.16,0.53-0.1,0.77c-0.87,0.77-1.74,1.54-2.61,2.3
	c-0.24,0.21-0.5,0.21-0.73,0.01c-0.89-0.78-1.77-1.56-2.66-2.34c-0.17-0.15-0.26-0.36-0.16-0.56c0.07-0.14,0.24-0.3,0.38-0.32
	c0.16-0.02,0.37,0.07,0.5,0.18c0.58,0.48,1.13,0.98,1.7,1.47C14.34,28.5,14.37,28.5,14.39,28.49z"/>
<path class="st0" d="M15.4,12.53c0,0.37,0.01,0.74,0,1.11c-0.01,0.34-0.21,0.55-0.51,0.54c-0.28,0-0.49-0.21-0.49-0.53
	c-0.01-0.74-0.01-1.48,0-2.22c0-0.32,0.21-0.52,0.49-0.53c0.3,0,0.5,0.2,0.51,0.54C15.41,11.81,15.4,12.17,15.4,12.53z"/>
</svg>
