<?xml version="1.0" encoding="UTF-8"?>
<svg version="1.1" xmlns="http://www.w3.org/2000/svg" width="1714" height="615">
<path d="M0 0 C28.67878812 0.82753574 57.34266863 1.26949436 86.03284943 1.41849559 C87.02519192 1.42379501 88.01753442 1.42909444 89.0399479 1.43455446 C98.10747537 1.48280767 107.1750185 1.52710937 116.24258806 1.56668254 C138.7533661 1.66497357 161.26367398 1.81259849 183.77393257 1.99406283 C184.79741673 2.00227372 185.82090088 2.01048461 186.87539971 2.01894432 C236.30190766 2.41977052 285.71480183 3.3898541 335.13171493 4.41191523 C352.21547263 4.76492684 369.29927705 5.11537638 386.38330185 5.45525019 C387.44328718 5.47634037 388.50327252 5.49743054 389.59537862 5.51915981 C439.15180714 6.50164399 488.71062144 7.07162869 538.2742646 7.53960865 C541.50381085 7.57010938 544.73335539 7.60078544 547.96289964 7.63149724 C569.37067795 7.83479731 590.77851695 8.03108391 612.18640298 8.22268156 C654.75916718 8.60376373 697.33149342 9.02596924 739.90357764 9.47655684 C741.92959057 9.49800005 743.9556038 9.51941446 745.98161734 9.54079992 C836.83974629 10.50008612 927.68798302 11.93692373 1018.53601181 13.58574336 C1019.80822714 13.60882843 1019.80822714 13.60882843 1021.10614379 13.63237986 C1063.49788288 14.40197473 1105.88907319 15.19908541 1148.27966415 16.02959101 C1156.4266539 106.04977064 1161.9891174 196.94476428 1110.01885139 426.79943698 C1055.91076544 490.54529958 983.01235748 510.91864938 903.02311628 517.55034938 C836.35375703 522.87802782 769.33154318 520.99258644 702.55932831 519.05918203 C673.88054019 518.23164629 645.21665968 517.78968767 616.52647888 517.64068644 C615.53413639 517.63538702 614.54179389 517.63008759 613.51938041 517.62462757 C604.45185293 517.57637436 595.38430981 517.53207265 586.31674024 517.49249949 C563.8059622 517.39420846 541.29565433 517.24658354 518.78539574 517.0651192 C517.76191158 517.05690831 516.73842742 517.04869741 515.6839286 517.04023771 C466.25742065 516.63941151 416.84452648 515.66932792 367.42761337 514.6472668 C350.34385568 514.29425519 333.26005125 513.94380565 316.17602646 513.60393183 C315.11604112 513.58284166 314.05605579 513.56175149 312.96394969 513.54002222 C263.40752116 512.55753804 213.84870686 511.98755334 164.28506371 511.51957338 C161.05551746 511.48907265 157.82597292 511.45839659 154.59642867 511.42768479 C133.18865035 511.22438472 111.78081136 511.02809812 90.37292533 510.83650046 C47.80016113 510.4554183 5.22783489 510.03321279 -37.34424934 509.58262519 C-39.37026226 509.56118197 -41.3962755 509.53976757 -43.42228903 509.51838211 C-134.28041799 508.55909591 -225.12865471 507.12225829 -315.9766835 505.47343867 C-316.82482705 505.45804862 -317.67297061 505.44265858 -318.54681548 505.42680217 C-360.93855457 504.6572073 -403.32974488 503.86009662 -445.72033585 503.02959101 C-453.86732559 413.00941139 -459.42978909 322.11441775 -407.45952309 92.25974505 C-342.94947636 16.25911589 -251.6229386 2.63383771 0 0 Z " fill="#01FFFF" transform="translate(509.7203358464467,47.9704089857114)"/>
<path d="M0 0 C22.44 0 44.88 0 68 0 C70.578125 6.744375 73.15625 13.48875 75.8125 20.4375 C85.12762954 44.77631009 94.52391028 69.08320109 103.97613525 93.36907959 C104.94600694 95.86125956 105.91520118 98.35370202 106.88427734 100.84619141 C108.46056691 104.89901145 110.04194003 108.94981968 111.625 113 C112.2900354 114.70869263 112.2900354 114.70869263 112.96850586 116.4519043 C113.36303955 117.45777588 113.75757324 118.46364746 114.1640625 119.5 C114.49873535 120.3559375 114.8334082 121.211875 115.17822266 122.09375 C115.8486692 123.97180624 115.8486692 123.97180624 117 125 C117.36536865 124.02393799 117.7307373 123.04787598 118.10717773 122.04223633 C125.89273535 101.2471408 133.70666728 80.46304549 141.56121826 59.69390869 C149.08001302 39.81054698 156.54392875 19.90698633 164 0 C186.44 0 208.88 0 232 0 C232 65.34 232 130.68 232 198 C213.52 198 195.04 198 176 198 C175.67 164.34 175.34 130.68 175 96 C163.24404292 129.97125833 151.5584037 163.96103131 140 198 C124.16 198 108.32 198 92 198 C90.47890625 193.49730469 88.9578125 188.99460937 87.390625 184.35546875 C86.39721994 181.415987 85.4037679 178.47652128 84.41015625 175.53710938 C82.85031208 170.92259205 81.2905957 166.30803199 79.73193359 161.69311523 C78.46822323 157.95153452 77.20369602 154.21023062 75.93871307 150.46907997 C75.46829718 149.07743518 74.99812474 147.68570805 74.52826691 146.29387474 C68.74849283 129.17425239 62.86027911 112.09248074 57 95 C56.67 128.99 56.34 162.98 56 198 C37.52 198 19.04 198 0 198 C0 132.66 0 67.32 0 0 Z " fill="#FDFFFF" transform="translate(894,209)"/>
<path d="M0 0 C17.16 -0.061875 34.32 -0.12375 52 -0.1875 C57.38828125 -0.21481201 62.7765625 -0.24212402 68.328125 -0.27026367 C74.984375 -0.28381348 74.984375 -0.28381348 78.11523438 -0.28633118 C80.26955025 -0.29089274 82.42385919 -0.30134838 84.578125 -0.31672668 C108.22992881 -0.47690492 130.38303109 1.40269219 148.6875 18.0625 C159.65610913 29.35767017 160.46551582 42.53296479 160.27734375 57.32421875 C160.07492122 63.5147227 159.09039743 68.58462866 156 74 C155.55269531 74.79148437 155.10539063 75.58296875 154.64453125 76.3984375 C148.80031647 85.83065546 141.8928778 91.11617425 132 96 C134.13923746 98.13923746 135.75384117 98.85019254 138.5 100.0625 C150.10568465 105.80672776 158.62676992 115.63847126 162.875 127.875 C167.14392818 142.08674826 165.99610364 157.34057619 159.4375 170.625 C151.49395278 184.18381336 138.8135064 191.75101511 124 196 C116.73761453 197.79938167 109.86329494 198.27909298 102.39990234 198.22705078 C100.70311057 198.22741239 100.70311057 198.22741239 98.97204018 198.2277813 C95.34325672 198.22629931 91.71468377 198.21111786 88.0859375 198.1953125 C85.83243916 198.19236861 83.57893944 198.1903303 81.32543945 198.18920898 C73.00860532 198.17876176 64.69180055 198.15083923 56.375 198.125 C37.77125 198.08375 19.1675 198.0425 0 198 C0 132.66 0 67.32 0 0 Z " fill="#FEFFFF" transform="translate(706,209)"/>
<path d="M0 0 C18.48 0 36.96 0 56 0 C56.03738281 8.76304687 56.07476563 17.52609375 56.11328125 26.5546875 C56.14741954 32.82203026 56.18341239 39.08934092 56.22207737 45.35665512 C56.2718798 53.46919843 56.31734984 61.58168906 56.34643555 69.69433594 C56.36948349 76.11900157 56.40295667 82.54351601 56.44870156 88.96806157 C56.47254274 92.36659712 56.49133085 95.76498379 56.49761391 99.16360092 C56.50727255 102.96720204 56.53535486 106.77026308 56.56762695 110.57373047 C56.56619186 111.68791855 56.56475677 112.80210663 56.5632782 113.95005798 C56.68812698 124.39237996 58.7943739 134.08350496 66 142 C73.71617006 147.47696777 82.83819762 147.75130953 92 147 C100.33519923 145.07809943 105.02129935 141.91486372 110.1875 135.125 C114.40405932 127.85507015 114.30332028 120.95142615 114.31884766 112.73071289 C114.32889328 111.51049438 114.3389389 110.29027588 114.34928894 109.03308105 C114.37479493 105.70505238 114.39170209 102.37719247 114.40471697 99.04910588 C114.42040076 95.56438101 114.44717411 92.07974131 114.4727478 88.59507751 C114.51944303 82.0044313 114.55623176 75.41376889 114.58942068 68.82304233 C114.63146708 60.57923497 114.68680943 52.33552362 114.7421875 44.09179688 C114.84085905 29.39458406 114.9194898 14.69734843 115 0 C133.48 0 151.96 0 171 0 C171.1209091 31.74535662 171.1209091 31.74535662 171.14648438 45.12304688 C171.16423461 54.33330336 171.18501792 63.54347708 171.22631836 72.75366211 C171.25639251 79.46358256 171.27561536 86.17343538 171.28226548 92.88342136 C171.28614753 96.43029121 171.29515181 99.97696774 171.31719017 103.5237751 C171.48727492 131.99732961 171.48727492 131.99732961 168 144 C167.78263687 144.76084396 167.56527374 145.52168793 167.34132385 146.30558777 C161.40165379 164.9944211 148.12229394 180.57770594 131.0390625 189.9921875 C116.17986947 197.66639481 101.00980876 200.39713477 84.375 200.375 C83.71558411 200.37478851 83.05616821 200.37457703 82.37677002 200.37435913 C71.69360388 200.34021882 62.10429292 199.45135398 52 196 C50.93523438 195.649375 49.87046875 195.29875 48.7734375 194.9375 C30.02777838 187.96237102 15.92602203 173.54120047 7.4296875 155.703125 C1.3671948 140.81916088 -0.16529194 125.57351845 -0.11352539 109.66552734 C-0.11367142 108.47413147 -0.11381744 107.2827356 -0.1139679 106.05523682 C-0.1133947 102.82037724 -0.10841401 99.58556215 -0.10139394 96.35071135 C-0.09510025 92.95814428 -0.09455188 89.56557615 -0.09336853 86.17300415 C-0.09027283 79.76303882 -0.0820834 73.35309076 -0.07201904 66.943133 C-0.05970059 58.92172741 -0.05426136 50.90031895 -0.04882812 42.87890625 C-0.0391168 28.58592409 -0.01907992 14.29297954 0 0 Z " fill="#FDFFFF" transform="translate(505,209)"/>
<path d="M0 0 C11.48846204 10.70190759 16.47188498 24.53845746 18.6875 39.6875 C18.6875 41.0075 18.6875 42.3275 18.6875 43.6875 C-1.4425 43.6875 -21.5725 43.6875 -42.3125 43.6875 C-43.3025 40.3875 -44.2925 37.0875 -45.3125 33.6875 C-48.32211921 29.17307118 -53.16003064 27.72138366 -58.3125 26.6875 C-62.44726475 26.49552878 -65.57746238 27.25606488 -69.1875 29.375 C-72.62904965 33.12021579 -73.33995513 36.15001282 -73.25 41.1875 C-71.81493205 46.54508703 -68.89078109 49.63881523 -64.37890625 52.63671875 C-54.62075937 57.47771692 -44.56760453 61.23383061 -34.32296753 64.89935303 C-21.1104272 69.63535911 -8.14580175 74.50448008 2.6875 83.6875 C3.698125 84.43 4.70875 85.1725 5.75 85.9375 C13.36086682 92.4077737 19.24334561 102.79436756 20.6875 112.6875 C21.95166918 132.06484328 18.98569341 148.33211337 6 163.4375 C1.09534021 168.59179816 -4.06558511 172.32105789 -10.3125 175.6875 C-11.15167969 176.14769531 -11.99085938 176.60789062 -12.85546875 177.08203125 C-34.70994925 188.02580288 -64.31287917 188.19109574 -87.3125 180.6875 C-105.20781199 174.53019472 -119.95306088 163.73977541 -128.5 146.625 C-132.13468153 138.45889136 -134.3125 129.6572373 -134.3125 120.6875 C-114.5125 120.6875 -94.7125 120.6875 -74.3125 120.6875 C-73.3225 124.3175 -72.3325 127.9475 -71.3125 131.6875 C-69.04649063 135.57208749 -66.62108616 137.58609962 -62.3671875 139.18359375 C-55.49441454 140.86912172 -49.45047723 140.06965072 -43.3125 136.6875 C-40.7882517 134.66810136 -40.36416468 133.84249404 -39.3125 130.6875 C-38.83392059 123.62410145 -38.83392059 123.62410145 -42.3125 117.6875 C-49.36947638 111.29492089 -58.72438943 108.75594082 -67.52636719 105.66894531 C-117.76799074 87.97079191 -117.76799074 87.97079191 -128.3125 67.6875 C-134.61298098 54.08743265 -135.67642881 37.71511435 -131.27734375 23.28125 C-127.86687243 14.11301941 -123.21698458 7.62715173 -116.3125 0.6875 C-115.70792969 0.048125 -115.10335938 -0.59125 -114.48046875 -1.25 C-86.43439238 -28.62394818 -28.26633793 -23.05795321 0 0 Z " fill="#FDFFFF" transform="translate(461.3125,224.3125)"/>
<path d="M0 0 C1.7537962 0.05517257 1.7537962 0.05517257 3.54302263 0.11145973 C27.534305 0.86779379 51.52501396 2.03980276 75.4347347 4.20228529 C77.23049136 4.36249157 79.02712911 4.51315726 80.82454932 4.65347338 C83.27552114 4.84995655 85.71861887 5.08830751 88.16444397 5.34011841 C88.87044983 5.39000314 89.57645568 5.43988786 90.30385566 5.49128425 C93.24653238 5.83706001 95.39618176 6.29157617 97.44624233 8.5010975 C97.92014715 9.13299751 98.39405197 9.76489751 98.88231754 10.41594601 C100.91604988 13.07608837 100.91604988 13.07608837 103.838754 14.52949238 C106.11544664 14.77054772 108.30440095 14.80220788 110.59347534 14.75474548 C111.45206433 14.76481001 112.31065333 14.77487454 113.19526017 14.78524405 C116.06578738 14.81044137 118.93369752 14.78588262 121.80419922 14.76147461 C123.86418499 14.76936414 125.92416096 14.78032557 127.9841156 14.79412842 C133.57270403 14.82286855 139.16045546 14.80861404 144.74904394 14.78668666 C150.5907469 14.77106219 156.4322848 14.79491288 162.2739563 14.81459045 C173.33425997 14.84584169 184.39425342 14.84155047 195.45457661 14.82451588 C208.04704287 14.80685013 220.63934265 14.82876728 233.23178458 14.85402286 C259.13374515 14.90508471 285.03551743 14.90639418 310.9375 14.875 C310.9375 18.175 310.9375 21.475 310.9375 24.875 C211.9375 25.37 211.9375 25.37 110.9375 25.875 C112.9175 28.35 112.9175 28.35 114.9375 30.875 C114.9375 31.535 114.9375 32.195 114.9375 32.875 C113.93340088 32.79166161 112.92930176 32.70832321 111.89477539 32.62245941 C79.61195404 29.97512407 47.31522252 28.29397495 14.9375 27.375 C13.71783791 27.33918918 12.49817581 27.30337835 11.24155426 27.26648235 C-70.29404209 24.1167872 -70.29404209 24.1167872 -139.48974609 61.73590088 C-146.13156209 68.09836127 -152.17966304 74.9380409 -158.0625 82 C-158.54218231 82.57401676 -159.02186462 83.14803352 -159.51608276 83.73944473 C-170.15312537 96.52002633 -180.13731051 109.71947642 -188.82904053 123.91815948 C-189.58861053 125.12560947 -189.58861053 125.12560947 -190.36352539 126.35745239 C-191.00687584 127.41879237 -191.00687584 127.41879237 -191.66322327 128.50157356 C-192.35586525 129.18141965 -192.35586525 129.18141965 -193.0625 129.875 C-196.44737673 129.57040859 -198.47762193 127.9982927 -201.0625 125.875 C-214.7874377 136.98472474 -228.08679989 148.52285097 -241.0625 160.5 C-242.01268005 161.3765625 -242.96286011 162.253125 -243.9418335 163.15625 C-266.90295456 184.53730886 -285.43782681 203.74667128 -286.66552734 236.33609009 C-286.75200351 242.20450332 -286.48303807 248.02294995 -286.0625 253.875 C-285.99401855 254.83489082 -285.92553711 255.79478165 -285.85498047 256.78376007 C-284.94754334 268.60733558 -283.3592841 280.24212706 -281.0625 291.875 C-277.5975 293.855 -277.5975 293.855 -274.0625 295.875 C-274.0625 353.625 -274.0625 411.375 -274.0625 470.875 C-276.3725 471.865 -278.6825 472.855 -281.0625 473.875 C-281.3925 497.305 -281.7225 520.735 -282.0625 544.875 C-285.0325 544.875 -288.0025 544.875 -291.0625 544.875 C-291.0625 522.765 -291.0625 500.655 -291.0625 477.875 C-293.7025 478.535 -296.3425 479.195 -299.0625 479.875 C-299.0625 414.865 -299.0625 349.855 -299.0625 282.875 C-295.5975 284.36 -295.5975 284.36 -292.0625 285.875 C-292.23428268 285.00695236 -292.40606537 284.13890472 -292.58305359 283.24455261 C-294.70667114 271.90509054 -296.02111278 260.57593986 -296.75 249.0625 C-296.80917225 248.13586044 -296.8683445 247.20922089 -296.92930984 246.25450134 C-298.37718807 219.84006247 -292.9917088 200.72250435 -275.2311306 180.76969337 C-267.0456294 171.81066438 -258.39717269 163.37201751 -249.5 155.125 C-248.75690873 154.43472568 -248.75690873 154.43472568 -247.99880552 153.73050642 C-235.03529204 141.7031951 -221.73163182 130.09400052 -208.0625 118.875 C-208.743125 118.1325 -209.42375 117.39 -210.125 116.625 C-212.0625 113.875 -212.0625 113.875 -211.8497057 111.97758102 C-204.58162096 92.56494576 -185.68072128 73.66983204 -172.25 58.125 C-171.72625369 57.5157754 -171.20250737 56.90655081 -170.66288996 56.27886486 C-122.93822364 0.99567949 -69.99899637 -2.35663241 0 0 Z " fill="#01FFFF" transform="translate(299.0625,-6.875)"/>
<path d="M0 0 C3.3 0 6.6 0 10 0 C12.87803219 30.33113479 14.78926087 60.67684477 15.875 91.125 C15.91589076 92.23892073 15.95678151 93.35284146 15.99891138 94.50051737 C19.56785951 194.35900325 19.56785951 194.35900325 -15.63248849 232.61578703 C-31.52426791 249.47405987 -50.49483893 264.60080161 -69.78294373 277.37580872 C-71.23063802 278.35281644 -71.23063802 278.35281644 -72.70757866 279.34956169 C-74.50026503 280.54468963 -76.31661831 281.70538437 -78.15896797 282.82243538 C-80.56515946 284.42303307 -82.24911611 285.70205916 -84 288 C-83.98648919 290.48990681 -83.98648919 290.48990681 -83.36408329 293.13529491 C-82.5471354 299.83454258 -84.68031398 303.17060002 -88.62301636 308.42123413 C-89.24885994 309.29148299 -89.87470352 310.16173184 -90.51951206 311.05835187 C-99.04070669 322.67611387 -108.30116298 333.68540678 -117.9921875 344.3359375 C-118.70740107 345.12234577 -118.70740107 345.12234577 -119.4370634 345.92464107 C-149.7185972 379.02828903 -178.70039055 395.12480396 -223.81592679 397.40706277 C-232.19039614 397.76972626 -240.56422244 397.81648911 -248.9453125 397.7890625 C-250.20168457 397.78597747 -250.20168457 397.78597747 -251.4834379 397.78283012 C-273.09593865 397.705422 -294.64292757 396.74206679 -316.21470428 395.48240542 C-328.73285498 394.75960802 -341.24484304 394.2746571 -353.77929688 393.94384766 C-355.11934067 393.90837999 -355.11934067 393.90837999 -356.48645605 393.8721958 C-360.97213136 393.75466805 -365.45789369 393.64095233 -369.94371438 393.5291245 C-406.66212572 392.6089064 -443.32730964 391.0364417 -480 389 C-478.35 386.69 -476.7 384.38 -475 382 C-565.75 381.67 -656.5 381.34 -750 381 C-750 378.03 -750 375.06 -750 372 C-747.81280618 372.00194823 -747.81280618 372.00194823 -745.58142662 372.00393581 C-710.97642576 372.03320084 -676.37160497 372.02644665 -641.76662721 371.97527504 C-637.50831824 371.96900962 -633.25000889 371.96304848 -628.99169922 371.95727539 C-628.14393849 371.95612095 -627.29617775 371.95496651 -626.4227273 371.95377708 C-612.69183886 371.93580477 -598.9610673 371.94248705 -585.2301809 371.95826416 C-571.14333906 371.97390211 -557.05669713 371.9630837 -542.96989024 371.92765242 C-534.27588658 371.90662064 -525.58238579 371.9062801 -516.8883936 371.93231983 C-510.92837676 371.94819503 -504.9687484 371.93839595 -499.00878756 371.90833985 C-495.56880908 371.89175237 -492.12979714 371.88655014 -488.68984985 371.91181374 C-484.96006627 371.93330461 -481.23291487 371.91197022 -477.50326538 371.87974548 C-476.41571311 371.89624443 -475.32816085 371.91274337 -474.20765245 371.92974228 C-468.78599282 372.01327426 -468.78599282 372.01327426 -464.32989907 369.39170283 C-463.4087751 368.1126373 -462.49089428 366.83122944 -461.57640612 365.54741114 C-459.45739396 363.46737416 -458.16901576 363.46361277 -455.22950745 363.38561916 C-453.30798813 363.47106134 -451.3879992 363.59643157 -449.47094727 363.75279236 C-448.409167 363.80905102 -447.34738674 363.86530968 -446.25343132 363.92327315 C-443.92523115 364.0507056 -441.59789842 364.19479475 -439.27160454 364.35326195 C-433.47263879 364.74760598 -427.668546 365.0422955 -421.86461985 365.3532951 C-419.77540291 365.46707601 -417.68650846 365.58570225 -415.59762859 365.70550239 C-405.32424023 366.28979 -395.05164481 366.71123035 -384.76708984 367.04066467 C-384.01763454 367.06488601 -383.26817924 367.08910734 -382.49601316 367.11406266 C-375.52341235 367.33839485 -368.55050833 367.55241171 -361.57740784 367.7605933 C-356.790838 367.90409519 -352.00447792 368.05340316 -347.21826172 368.20825195 C-346.42389285 368.23387703 -345.62952397 368.25950211 -344.81108332 368.2859037 C-333.71845821 368.65212407 -322.6545896 369.23034645 -311.58137751 369.9772497 C-292.43335562 371.26737259 -273.31890728 372.09604418 -254.125 372.15234375 C-253.37667624 372.15571052 -252.62835249 372.1590773 -251.85735226 372.1625461 C-206.51976895 372.300791 -176.02474791 362.74324811 -143.34039402 330.57937213 C-126.07100541 313.30663793 -110.2037211 294.48024338 -95.62457466 274.89945549 C-95.03792471 274.11708946 -94.45127476 273.33472342 -93.84684753 272.52864933 C-93.08842701 271.50043445 -93.08842701 271.50043445 -92.31468487 270.45144755 C-91.88083886 269.97246986 -91.44699286 269.49349217 -91 269 C-90.34 269 -89.68 269 -89 269 C-88.67 271.64 -88.34 274.28 -88 277 C-86.57772095 275.61554688 -86.57772095 275.61554688 -85.12670898 274.203125 C-80.99030099 270.56856041 -76.55267425 267.81118675 -71.85571289 264.984375 C-60.6243549 258.12500239 -50.20172879 250.38355487 -40.0625 242 C-39.13617138 241.23492504 -38.20984276 240.46985008 -37.25544357 239.68159103 C-11.70708071 218.0769022 0.46448951 195.58687833 3.37485409 162.40434837 C5.22616071 138.49711087 5.04224413 114.51470172 4.4375 90.5625 C4.41028791 89.45474716 4.38307582 88.34699432 4.35503912 87.20567322 C3.62206992 58.09268169 2.15587512 29.04137197 0 0 Z " fill="#01FFFF" transform="translate(1704,226)"/>
<path d="M0 0 C53.13 0 106.26 0 161 0 C161 14.85 161 29.7 161 45 C143.51 45 126.02 45 108 45 C108 95.49 108 145.98 108 198 C89.52 198 71.04 198 52 198 C52 147.51 52 97.02 52 45 C34.84 45 17.68 45 0 45 C0 30.15 0 15.3 0 0 Z " fill="#FDFFFF" transform="translate(1231,209)"/>
<path d="M0 0 C18.48 0 36.96 0 56 0 C56 65.34 56 130.68 56 198 C37.52 198 19.04 198 0 198 C0 132.66 0 67.32 0 0 Z " fill="#FEFFFF" transform="translate(1155,209)"/>
<path d="M0 0 C5.259375 -0.04125 10.51875 -0.0825 15.9375 -0.125 C17.578396 -0.14320801 19.21929199 -0.16141602 20.90991211 -0.18017578 C40.49468571 -0.25442858 40.49468571 -0.25442858 48 6 C51.70797845 10.34728508 51.98270033 15.47275527 52 21 C51.31041862 25.67382938 50.54099961 27.45900039 47.1875 30.8125 C41.32020938 34.83907199 36.9088161 35.28176344 29.98046875 35.1953125 C29.12189774 35.1924826 28.26332672 35.18965271 27.3787384 35.18673706 C24.64818125 35.1755807 21.9179573 35.15048459 19.1875 35.125 C17.33138496 35.11496432 15.47526476 35.1058395 13.61914062 35.09765625 C9.07919678 35.07736146 4.53996948 35.03820451 0 35 C0 23.45 0 11.9 0 0 Z " fill="#01FFFF" transform="translate(762,327)"/>
<path d="M0 0 C4.83902614 -0.09226957 9.67495234 -0.17176613 14.51416016 -0.21972656 C16.1571695 -0.23973571 17.80010859 -0.26695213 19.44287109 -0.30175781 C21.81625788 -0.35075305 24.18869649 -0.37307504 26.5625 -0.390625 C27.64893799 -0.42159271 27.64893799 -0.42159271 28.75732422 -0.45318604 C35.47340796 -0.45608423 40.6841641 1.74206 45.5 6.4375 C47.76739449 11.82256192 47.80037392 17.23874992 47 23 C44.92255313 27.08564552 42.97678659 29.64639161 39 32 C30.32970189 34.1830806 21.63388152 34.24939636 12.75 34.125 C8.5425 34.08375 4.335 34.0425 0 34 C0 22.78 0 11.56 0 0 Z " fill="#01FFFF" transform="translate(762,254)"/>
<path d="M0 0 C2.12896949 1.59795632 2.89064102 2.5051506 3.46875 5.12109375 C3.52369609 9.19397255 3.53066626 11.30350053 1 14.625 C-2.97957955 16.44897396 -5.86789833 16.37736722 -10 15 C-12.88247576 12.65798844 -12.97497895 11.20016837 -13.4375 7.5 C-13 4 -13 4 -11.125 1.625 C-7.11862281 -1.43870021 -4.92522917 -1.03689035 0 0 Z " fill="#01FFFF" transform="translate(923,595)"/>
<path d="M0 0 C2.375 1.625 2.375 1.625 4 4 C4.45019252 7.60154012 4.41219248 10.02104287 3 13.375 C-0.0692315 15.8687506 -3.09564851 16.29624457 -7 16 C-10 14.5625 -10 14.5625 -12 12 C-12.82532005 8.1194086 -12.56920004 5.05708578 -10.6875 1.5625 C-7.26014059 -1.61098093 -4.25968922 -1.13012163 0 0 Z " fill="#01FFFF" transform="translate(800,595)"/>
<path d="M0 0 C2.78251058 2.33371855 2.97502272 3.82828118 3.5 7.4375 C3 11 3 11 1 14 C-2.06692037 16.04461358 -2.66893707 16.32393649 -6.125 16.0625 C-8.74404157 15.52386692 -9.89138607 15.08824882 -12 13.375 C-13.41219248 10.02104287 -13.45019252 7.60154012 -13 4 C-8.99828585 -1.06883792 -6.21426986 -1.41728962 0 0 Z " fill="#01FFFF" transform="translate(760,595)"/>
<path d="M0 0 C2.64764845 1.67684402 2.95477045 2.85138861 3.875 5.875 C4.02524355 9.63108863 3.28344384 11.06414363 1 14 C-2 16 -2 16 -5.4375 15.875 C-9.33123193 14.91864479 -10.76861278 14.30245308 -13 11 C-13.48376933 7.12984535 -13.29551985 4.21372779 -11 1 C-7.4367155 -1.7714435 -4.20758349 -0.99451973 0 0 Z " fill="#01FFFF" transform="translate(719,595)"/>
<path d="M0 0 C2.375 1.0625 2.375 1.0625 4 3 C5.10373378 6.97344161 5.41543583 9.08999772 3.6875 12.875 C2 15 2 15 0 16 C-3.51055666 16.26004123 -6.13276702 16.38797265 -9.375 14.9375 C-11.81081016 12.03326481 -11.93550991 9.74042509 -12 6 C-9.21306374 -0.10471753 -6.50222178 -0.44842909 0 0 Z " fill="#01FFFF" transform="translate(851,5)"/>
<path d="M0 0 C2.375 1.0625 2.375 1.0625 4 3 C5.10373378 6.97344161 5.41543583 9.08999772 3.6875 12.875 C2 15 2 15 0 16 C-3.47968002 16.25775408 -6.13343059 16.36487133 -9.375 15 C-11.48706881 12.4005307 -11.97211356 10.31986461 -12.22265625 7.0078125 C-12 5 -12 5 -10 2 C-6.29101164 -0.47265891 -4.37934493 -0.63699563 0 0 Z " fill="#01FFFF" transform="translate(688,5)"/>
<path d="M0 0 C2.64764845 1.67684402 2.95477045 2.85138861 3.875 5.875 C4.02524355 9.63108863 3.28344384 11.06414363 1 14 C-2 16 -2 16 -5.5 15.8125 C-9 15 -9 15 -10.875 13.875 C-12.67167343 10.88054428 -12.94016186 8.47061229 -13 5 C-9.23021184 -0.97966398 -6.77641513 -1.42661371 0 0 Z " fill="#01FFFF" transform="translate(882,595)"/>
<path d="M0 0 C2.4375 2.125 2.4375 2.125 4 5 C3.94016186 8.47061229 3.67167343 10.88054428 1.875 13.875 C-1.11945572 15.67167343 -3.52938771 15.94016186 -7 16 C-10.50949663 14.09266488 -11.71110949 12.84861588 -13 9.0625 C-13 5.3743624 -12.2997943 3.85491706 -10 1 C-6.62771107 -1.55828815 -3.95120002 -1.23475 0 0 Z " fill="#01FFFF" transform="translate(841,595)"/>
<path d="M0 0 C2.99097304 2.54232708 3.84202557 4.1574697 4.5625 8 C3.78698584 12.13607554 2.38677089 13.54999553 -1 16 C-5.03211364 16.63664952 -7.01737304 16.69818231 -10.375 14.3125 C-12.23688689 11.66289173 -12.92278899 10.24286253 -13 7 C-10.29610878 0.3046503 -7.21376287 -1.25456746 0 0 Z " fill="#01FFFF" transform="translate(648,5)"/>
<path d="M0 0 C2.99097304 2.54232708 3.84202557 4.1574697 4.5625 8 C3.78698584 12.13607554 2.38677089 13.54999553 -1 16 C-4.95779649 16.62491523 -7.00863886 16.61006839 -10.4375 14.5 C-12.64099302 10.97441116 -12.79669284 8.04985528 -12 4 C-9.20664469 -0.65559218 -5.02394308 -1.18392101 0 0 Z " fill="#01FFFF" transform="translate(811,5)"/>
<path d="M0 0 C2.5 1.5 2.5 1.5 4 4 C4.791013 8.02098277 4.62153384 10.96411027 2.5 14.5 C-1.03588973 16.62153384 -3.97901723 16.791013 -8 16 C-10.5 14.5 -10.5 14.5 -12 12 C-12.791013 7.97901723 -12.62153384 5.03588973 -10.5 1.5 C-6.96411027 -0.62153384 -4.02098277 -0.791013 0 0 Z " fill="#01FFFF" transform="translate(770,5)"/>
<path d="M0 0 C1.90625 0.41015625 1.90625 0.41015625 4.40625 1.91015625 C6.52522146 5.44177535 6.70466448 8.39339062 5.90625 12.41015625 C4.34375 14.91015625 4.34375 14.91015625 1.90625 16.41015625 C-1.53125 16.97265625 -1.53125 16.97265625 -5.09375 16.41015625 C-8.48052089 13.96015178 -9.88073584 12.54623179 -10.65625 8.41015625 C-9.4436499 1.94295573 -6.36945565 -0.4634492 0 0 Z " fill="#01FFFF" transform="translate(727.09375,4.58984375)"/>
</svg>
